<svg width="16" height="16" viewBox="0 0 16 16" fill="none" xmlns="http://www.w3.org/2000/svg">
<path d="M13.7498 1.17895H10.3274V1.14526C10.3274 0.505263 9.814 0 9.16373 0H6.83646C6.18619 0 5.67282 0.505263 5.67282 1.14526V1.17895H2.25036C1.89101 1.17895 1.6001 1.46526 1.6001 1.81895V2.45895C1.6001 2.81263 1.89101 3.09895 2.25036 3.09895H13.7498C14.1092 3.09895 14.4001 2.81263 14.4001 2.45895V1.81895C14.4001 1.46526 14.1092 1.17895 13.7498 1.17895Z" fill="#C7D7ED"/>
<path d="M12.8943 3.97461H3.1061C2.91786 3.97461 2.78096 4.12619 2.79807 4.31145L3.27722 14.063C3.32856 15.1409 4.23551 15.9999 5.3307 15.9999H10.6526C11.7478 15.9999 12.6548 15.1578 12.7061 14.063L13.1852 4.31145C13.2195 4.14303 13.0655 3.97461 12.8943 3.97461ZM6.93925 13.3893C6.93925 13.6925 6.69968 13.9283 6.39166 13.9283C6.08364 13.9283 5.84406 13.6925 5.84406 13.3893V6.60198C5.84406 6.29882 6.08364 6.06303 6.39166 6.06303C6.69968 6.06303 6.93925 6.29882 6.93925 6.60198V13.3893ZM10.1564 13.3893C10.1564 13.6925 9.91679 13.9283 9.60877 13.9283C9.30075 13.9283 9.06118 13.6925 9.06118 13.3893V6.60198C9.06118 6.29882 9.30075 6.06303 9.60877 6.06303C9.91679 6.06303 10.1564 6.29882 10.1564 6.60198V13.3893Z" fill="#C7D7ED"/>
</svg>
 