<svg width="21" height="22" viewBox="0 0 21 22" fill="none" xmlns="http://www.w3.org/2000/svg">
<path fill-rule="evenodd" clip-rule="evenodd" d="M14.22 9.79176L10.9963 13.0601C10.7985 13.2606 10.4778 13.2606 10.28 13.0601L7.05625 9.79176C6.85843 9.5912 6.85843 9.26603 7.05625 9.06547C7.25407 8.86491 7.5748 8.86491 7.77263 9.06547L10.1316 11.4571L10.1316 5.47363L11.1447 5.47363L11.1447 11.4571L13.5037 9.06547C13.7015 8.86491 14.0222 8.86491 14.22 9.06547C14.4179 9.26603 14.4179 9.5912 14.22 9.79176Z" fill="white"/>
<path fill-rule="evenodd" clip-rule="evenodd" d="M4.14471 10.8618V12.9342C4.14471 13.6972 4.76327 14.3158 5.52629 14.3158H15.75C16.513 14.3158 17.1316 13.6972 17.1316 12.9342V10.8618H18.7894V12.9342C18.7894 14.6128 17.4286 15.9737 15.75 15.9737H5.52629C3.84764 15.9737 2.48682 14.6128 2.48682 12.9342V10.8618H4.14471Z" fill="white"/>
</svg>
