<svg width="22" height="22" viewBox="0 0 22 22" fill="none" xmlns="http://www.w3.org/2000/svg">
<path d="M3.63528 17.2338C5.01148 18.6206 7.2485 18.6206 8.62191 17.2338L11.9092 13.9088C11.1626 14.2548 10.2934 14.2435 9.55516 13.8778L7.42679 16.027C6.70805 16.7528 5.54636 16.7528 4.82762 16.027C4.10887 15.3012 4.10887 14.1282 4.82762 13.4024L8.36562 9.82982C9.08436 9.10404 10.2405 9.10967 10.9592 9.83544C11.079 9.95359 11.2991 10.1758 11.3214 10.1533C11.6417 10.3305 12.0513 10.2799 12.3215 10.007C12.5917 9.73698 12.6419 9.32909 12.4719 9.00559L12.4747 9.00277C12.4691 8.99715 12.4664 8.99152 12.4608 8.9859C12.4218 8.92119 12.3772 8.85931 12.3215 8.80305C12.3048 8.78617 12.2825 8.76648 12.263 8.7496C12.2268 8.71021 12.1906 8.67083 12.1543 8.63426C10.7781 7.24742 8.54112 7.24742 7.16771 8.63426L3.63528 12.2012C2.26187 13.5881 2.26187 15.847 3.63528 17.2338Z" fill="#F0993A"/>
<path d="M13.681 12.1281L17.2106 8.56112C18.5868 7.17428 18.5868 4.91539 17.2106 3.52854C15.8344 2.1417 13.5974 2.1417 12.224 3.52854L8.93392 6.85078C9.68053 6.50477 10.5525 6.51884 11.2879 6.88172L13.4219 4.73535C14.1406 4.00958 15.3023 4.00958 16.0211 4.73535C16.7398 5.46112 16.7398 6.63417 16.0211 7.35994L12.4831 10.9325C11.7643 11.6583 10.6082 11.6527 9.88946 10.9269C9.76967 10.8088 9.54959 10.5865 9.52731 10.609C9.20694 10.4318 8.79742 10.4824 8.52719 10.7553C8.25697 11.0254 8.20682 11.4333 8.37676 11.7568L8.37397 11.7596C8.37955 11.7652 8.38233 11.7708 8.3879 11.7765C8.4269 11.8412 8.47148 11.903 8.52719 11.9593C8.54391 11.9762 8.5662 11.9959 8.5857 12.0128C8.62191 12.0521 8.65813 12.0915 8.69434 12.1281C10.0705 13.5149 12.3076 13.5149 13.681 12.1281Z" fill="#F0993A"/>
</svg>
