<svg width="23" height="21" viewBox="0 0 23 21" fill="none" xmlns="http://www.w3.org/2000/svg">
<mask id="path-1-outside-1_363_4688" maskUnits="userSpaceOnUse" x="3.01953" y="1.10669" width="17" height="19" fill="black">
<rect fill="white" x="3.01953" y="1.10669" width="17" height="19"/>
<path fill-rule="evenodd" clip-rule="evenodd" d="M15.9685 6.99195C17.1161 6.99195 18.0464 6.10681 18.0464 5.01495C18.0464 3.92308 17.1161 3.03795 15.9685 3.03795C14.8209 3.03795 13.8906 3.92308 13.8906 5.01495C13.8906 6.10681 14.8209 6.99195 15.9685 6.99195ZM15.9685 7.9232C17.6567 7.9232 19.0252 6.62113 19.0252 5.01495C19.0252 3.40876 17.6567 2.10669 15.9685 2.10669C14.2803 2.10669 12.9118 3.40876 12.9118 5.01495C12.9118 5.43464 13.0052 5.83358 13.1734 6.19394L9.11629 8.6319C8.57523 8.19123 7.8602 7.92319 7.07624 7.92319C5.38806 7.92319 4.01953 9.16608 4.01953 10.6993C4.01953 12.2324 5.38806 13.4753 7.07624 13.4753C7.95346 13.4753 8.74437 13.1397 9.30182 12.6022L13.2825 14.9942C13.0461 15.407 12.9118 15.8804 12.9118 16.3836C12.9118 17.9898 14.2803 19.2918 15.9685 19.2918C17.6567 19.2918 19.0252 17.9898 19.0252 16.3836C19.0252 14.7774 17.6567 13.4753 15.9685 13.4753C15.1636 13.4753 14.4314 13.7713 13.8855 14.2551L9.86437 11.8388C10.0369 11.4911 10.1329 11.1054 10.1329 10.6993C10.1329 10.2106 9.99393 9.75145 9.74986 9.35262L13.7089 6.97359C14.268 7.55706 15.0733 7.9232 15.9685 7.9232ZM15.9685 18.3606C17.1161 18.3606 18.0464 17.4754 18.0464 16.3836C18.0464 15.2917 17.1161 14.4066 15.9685 14.4066C14.8209 14.4066 13.8906 15.2917 13.8906 16.3836C13.8906 17.4754 14.8209 18.3606 15.9685 18.3606ZM9.15415 10.6993C9.15415 11.6778 8.26724 12.5441 7.07624 12.5441C5.88523 12.5441 4.99832 11.6778 4.99832 10.6993C4.99832 9.72075 5.88523 8.85445 7.07624 8.85445C8.26724 8.85445 9.15415 9.72075 9.15415 10.6993Z"/>
</mask>
<path fill-rule="evenodd" clip-rule="evenodd" d="M15.9685 6.99195C17.1161 6.99195 18.0464 6.10681 18.0464 5.01495C18.0464 3.92308 17.1161 3.03795 15.9685 3.03795C14.8209 3.03795 13.8906 3.92308 13.8906 5.01495C13.8906 6.10681 14.8209 6.99195 15.9685 6.99195ZM15.9685 7.9232C17.6567 7.9232 19.0252 6.62113 19.0252 5.01495C19.0252 3.40876 17.6567 2.10669 15.9685 2.10669C14.2803 2.10669 12.9118 3.40876 12.9118 5.01495C12.9118 5.43464 13.0052 5.83358 13.1734 6.19394L9.11629 8.6319C8.57523 8.19123 7.8602 7.92319 7.07624 7.92319C5.38806 7.92319 4.01953 9.16608 4.01953 10.6993C4.01953 12.2324 5.38806 13.4753 7.07624 13.4753C7.95346 13.4753 8.74437 13.1397 9.30182 12.6022L13.2825 14.9942C13.0461 15.407 12.9118 15.8804 12.9118 16.3836C12.9118 17.9898 14.2803 19.2918 15.9685 19.2918C17.6567 19.2918 19.0252 17.9898 19.0252 16.3836C19.0252 14.7774 17.6567 13.4753 15.9685 13.4753C15.1636 13.4753 14.4314 13.7713 13.8855 14.2551L9.86437 11.8388C10.0369 11.4911 10.1329 11.1054 10.1329 10.6993C10.1329 10.2106 9.99393 9.75145 9.74986 9.35262L13.7089 6.97359C14.268 7.55706 15.0733 7.9232 15.9685 7.9232ZM15.9685 18.3606C17.1161 18.3606 18.0464 17.4754 18.0464 16.3836C18.0464 15.2917 17.1161 14.4066 15.9685 14.4066C14.8209 14.4066 13.8906 15.2917 13.8906 16.3836C13.8906 17.4754 14.8209 18.3606 15.9685 18.3606ZM9.15415 10.6993C9.15415 11.6778 8.26724 12.5441 7.07624 12.5441C5.88523 12.5441 4.99832 11.6778 4.99832 10.6993C4.99832 9.72075 5.88523 8.85445 7.07624 8.85445C8.26724 8.85445 9.15415 9.72075 9.15415 10.6993Z" fill="white"/>
<path d="M13.1734 6.19394L13.4309 6.62252L13.8169 6.39057L13.6265 5.9825L13.1734 6.19394ZM9.11629 8.6319L8.80054 9.01958L9.07282 9.24135L9.37382 9.06047L9.11629 8.6319ZM9.30182 12.6022L9.55935 12.1736L9.23073 11.9761L8.95475 12.2423L9.30182 12.6022ZM13.2825 14.9942L13.7164 15.2427L13.9597 14.8178L13.54 14.5656L13.2825 14.9942ZM13.8855 14.2551L13.628 14.6837L13.9425 14.8727L14.2172 14.6293L13.8855 14.2551ZM9.86437 11.8388L9.4165 11.6165L9.21141 12.0297L9.60684 12.2674L9.86437 11.8388ZM9.74986 9.35262L9.49232 8.92405L9.06027 9.18367L9.32338 9.61361L9.74986 9.35262ZM13.7089 6.97359L14.07 6.62767L13.7937 6.33932L13.4514 6.54501L13.7089 6.97359ZM17.5464 5.01495C17.5464 5.80751 16.8637 6.49195 15.9685 6.49195V7.49195C17.3685 7.49195 18.5464 6.40612 18.5464 5.01495H17.5464ZM15.9685 3.53795C16.8637 3.53795 17.5464 4.22239 17.5464 5.01495H18.5464C18.5464 3.62377 17.3685 2.53795 15.9685 2.53795V3.53795ZM14.3906 5.01495C14.3906 4.22239 15.0733 3.53795 15.9685 3.53795V2.53795C14.5685 2.53795 13.3906 3.62377 13.3906 5.01495H14.3906ZM15.9685 6.49195C15.0733 6.49195 14.3906 5.80751 14.3906 5.01495H13.3906C13.3906 6.40612 14.5685 7.49195 15.9685 7.49195V6.49195ZM18.5252 5.01495C18.5252 6.32183 17.4043 7.4232 15.9685 7.4232V8.4232C17.9091 8.4232 19.5252 6.92044 19.5252 5.01495H18.5252ZM15.9685 2.60669C17.4043 2.60669 18.5252 3.70807 18.5252 5.01495H19.5252C19.5252 3.10945 17.9091 1.60669 15.9685 1.60669V2.60669ZM13.4118 5.01495C13.4118 3.70807 14.5327 2.60669 15.9685 2.60669V1.60669C14.0279 1.60669 12.4118 3.10945 12.4118 5.01495H13.4118ZM13.6265 5.9825C13.4884 5.68647 13.4118 5.35954 13.4118 5.01495H12.4118C12.4118 5.50975 12.5221 5.98069 12.7203 6.40538L13.6265 5.9825ZM9.37382 9.06047L13.4309 6.62252L12.9159 5.76537L8.85876 8.20332L9.37382 9.06047ZM7.07624 8.42319C7.74591 8.42319 8.34925 8.65203 8.80054 9.01958L9.43204 8.24421C8.80122 7.73042 7.97449 7.42319 7.07624 7.42319V8.42319ZM4.51953 10.6993C4.51953 9.48644 5.61781 8.42319 7.07624 8.42319V7.42319C5.15832 7.42319 3.51953 8.84571 3.51953 10.6993H4.51953ZM7.07624 12.9753C5.61781 12.9753 4.51953 11.9121 4.51953 10.6993H3.51953C3.51953 12.5528 5.15832 13.9753 7.07624 13.9753V12.9753ZM8.95475 12.2423C8.49178 12.6887 7.8258 12.9753 7.07624 12.9753V13.9753C8.08112 13.9753 8.99696 13.5907 9.64889 12.9621L8.95475 12.2423ZM9.04428 13.0308L13.025 15.4228L13.54 14.5656L9.55935 12.1736L9.04428 13.0308ZM13.4118 16.3836C13.4118 15.9708 13.5217 15.5827 13.7164 15.2427L12.8486 14.7458C12.5706 15.2313 12.4118 15.79 12.4118 16.3836H13.4118ZM15.9685 18.7918C14.5327 18.7918 13.4118 17.6905 13.4118 16.3836H12.4118C12.4118 18.2891 14.0279 19.7918 15.9685 19.7918V18.7918ZM18.5252 16.3836C18.5252 17.6905 17.4043 18.7918 15.9685 18.7918V19.7918C17.9091 19.7918 19.5252 18.2891 19.5252 16.3836H18.5252ZM15.9685 13.9753C17.4043 13.9753 18.5252 15.0767 18.5252 16.3836H19.5252C19.5252 14.4781 17.9091 12.9753 15.9685 12.9753V13.9753ZM14.2172 14.6293C14.6729 14.2254 15.2875 13.9753 15.9685 13.9753V12.9753C15.0397 12.9753 14.1899 13.3172 13.5539 13.8809L14.2172 14.6293ZM14.143 13.8265L10.1219 11.4102L9.60684 12.2674L13.628 14.6837L14.143 13.8265ZM9.63294 10.6993C9.63294 11.0253 9.55608 11.3353 9.4165 11.6165L10.3123 12.0611C10.5178 11.647 10.6329 11.1854 10.6329 10.6993H9.63294ZM9.32338 9.61361C9.52188 9.93798 9.63294 10.3074 9.63294 10.6993H10.6329C10.6329 10.1138 10.466 9.56492 10.1763 9.09164L9.32338 9.61361ZM13.4514 6.54501L9.49232 8.92405L10.0074 9.7812L13.9665 7.40216L13.4514 6.54501ZM15.9685 7.4232C15.2111 7.4232 14.5358 7.11383 14.07 6.62767L13.3479 7.3195C14.0002 8.00029 14.9355 8.4232 15.9685 8.4232V7.4232ZM17.5464 16.3836C17.5464 17.1761 16.8637 17.8606 15.9685 17.8606V18.8606C17.3685 18.8606 18.5464 17.7748 18.5464 16.3836H17.5464ZM15.9685 14.9066C16.8637 14.9066 17.5464 15.591 17.5464 16.3836H18.5464C18.5464 14.9924 17.3685 13.9066 15.9685 13.9066V14.9066ZM14.3906 16.3836C14.3906 15.591 15.0733 14.9066 15.9685 14.9066V13.9066C14.5685 13.9066 13.3906 14.9924 13.3906 16.3836H14.3906ZM15.9685 17.8606C15.0733 17.8606 14.3906 17.1761 14.3906 16.3836H13.3906C13.3906 17.7748 14.5685 18.8606 15.9685 18.8606V17.8606ZM7.07624 13.0441C8.50034 13.0441 9.65415 11.9951 9.65415 10.6993H8.65415C8.65415 11.3605 8.03414 12.0441 7.07624 12.0441V13.0441ZM4.49832 10.6993C4.49832 11.9951 5.65213 13.0441 7.07624 13.0441V12.0441C6.11833 12.0441 5.49832 11.3605 5.49832 10.6993H4.49832ZM7.07624 8.35445C5.65213 8.35445 4.49832 9.40345 4.49832 10.6993H5.49832C5.49832 10.0381 6.11833 9.35445 7.07624 9.35445V8.35445ZM9.65415 10.6993C9.65415 9.40345 8.50034 8.35445 7.07624 8.35445V9.35445C8.03414 9.35445 8.65415 10.0381 8.65415 10.6993H9.65415Z" fill="white" mask="url(#path-1-outside-1_363_4688)"/>
</svg>
